<mxfile host="drawio-plugin" modified="2021-03-26T01:45:36.214Z" agent="5.0 (Windows NT 6.2; Win64; x64) AppleWebKit/537.36 (KHTML, like Gecko) Chrome/84.0.4147.105 Safari/537.36" etag="MyD4vigwSJrTauztZgUC" version="13.7.9" type="embed"><diagram id="ttyi7npLmq-Wdz17G727" name="Page-1"><mxGraphModel dx="752" dy="567" grid="1" gridSize="10" guides="1" tooltips="1" connect="1" arrows="1" fold="1" page="1" pageScale="1" pageWidth="850" pageHeight="1100" math="0" shadow="0"><root><mxCell id="0"/><mxCell id="1" parent="0"/><object label="" type="drone" id="3"><mxCell style="rounded=0;whiteSpace=wrap;html=1;" parent="1" vertex="1"><mxGeometry x="110" y="178" width="5" height="5" as="geometry"/></mxCell></object><object label="" type="drone" id="4"><mxCell style="rounded=0;whiteSpace=wrap;html=1;" parent="1" vertex="1"><mxGeometry x="110" y="218" width="5" height="5" as="geometry"/></mxCell></object><object label="" type="drone" id="5"><mxCell style="rounded=0;whiteSpace=wrap;html=1;" parent="1" vertex="1"><mxGeometry x="140" y="188" width="5" height="5" as="geometry"/></mxCell></object><object label="" type="drone" id="6"><mxCell style="rounded=0;whiteSpace=wrap;html=1;" parent="1" vertex="1"><mxGeometry x="130" y="188" width="5" height="5" as="geometry"/></mxCell></object><object label="" type="drone" id="7"><mxCell style="rounded=0;whiteSpace=wrap;html=1;" parent="1" vertex="1"><mxGeometry x="110" y="188" width="5" height="5" as="geometry"/></mxCell></object><object label="" type="drone" id="8"><mxCell style="rounded=0;whiteSpace=wrap;html=1;" parent="1" vertex="1"><mxGeometry x="110" y="228" width="5" height="5" as="geometry"/></mxCell></object><object label="" type="drone" id="9"><mxCell style="rounded=0;whiteSpace=wrap;html=1;" parent="1" vertex="1"><mxGeometry x="120" y="178" width="5" height="5" as="geometry"/></mxCell></object><object label="" type="drone" id="10"><mxCell style="rounded=0;whiteSpace=wrap;html=1;" parent="1" vertex="1"><mxGeometry x="130" y="178" width="5" height="5" as="geometry"/></mxCell></object><object label="" type="drone" id="11"><mxCell style="rounded=0;whiteSpace=wrap;html=1;" parent="1" vertex="1"><mxGeometry x="110" y="198" width="5" height="5" as="geometry"/></mxCell></object><object label="" type="drone" id="12"><mxCell style="rounded=0;whiteSpace=wrap;html=1;" parent="1" vertex="1"><mxGeometry x="110" y="238" width="5" height="5" as="geometry"/></mxCell></object><object label="" type="drone" id="13"><mxCell style="rounded=0;whiteSpace=wrap;html=1;" parent="1" vertex="1"><mxGeometry x="150" y="218" width="5" height="5" as="geometry"/></mxCell></object><object label="" type="drone" id="14"><mxCell style="rounded=0;whiteSpace=wrap;html=1;" parent="1" vertex="1"><mxGeometry x="140" y="198" width="5" height="5" as="geometry"/></mxCell></object><object label="" type="drone" id="15"><mxCell style="rounded=0;whiteSpace=wrap;html=1;" parent="1" vertex="1"><mxGeometry x="110" y="208" width="5" height="5" as="geometry"/></mxCell></object><object label="" type="drone" id="16"><mxCell style="rounded=0;whiteSpace=wrap;html=1;" parent="1" vertex="1"><mxGeometry x="110" y="248" width="5" height="5" as="geometry"/></mxCell></object><object label="" type="drone" id="17"><mxCell style="rounded=0;whiteSpace=wrap;html=1;" parent="1" vertex="1"><mxGeometry x="140" y="208" width="5" height="5" as="geometry"/></mxCell></object><object label="" type="drone" id="18"><mxCell style="rounded=0;whiteSpace=wrap;html=1;" parent="1" vertex="1"><mxGeometry x="150" y="208" width="5" height="5" as="geometry"/></mxCell></object><object label="" type="drone" id="19"><mxCell style="rounded=0;whiteSpace=wrap;html=1;" parent="1" vertex="1"><mxGeometry x="186" y="178" width="5" height="5" as="geometry"/></mxCell></object><object label="" type="drone" id="20"><mxCell style="rounded=0;whiteSpace=wrap;html=1;" parent="1" vertex="1"><mxGeometry x="200" y="178" width="5" height="5" as="geometry"/></mxCell></object><object label="" type="drone" id="21"><mxCell style="rounded=0;whiteSpace=wrap;html=1;" parent="1" vertex="1"><mxGeometry x="215" y="198" width="5" height="5" as="geometry"/></mxCell></object><object label="" type="drone" id="22"><mxCell style="rounded=0;whiteSpace=wrap;html=1;" parent="1" vertex="1"><mxGeometry x="195" y="215" width="5" height="5" as="geometry"/></mxCell></object><object label="" type="drone" id="23"><mxCell style="rounded=0;whiteSpace=wrap;html=1;" parent="1" vertex="1"><mxGeometry x="205" y="188" width="5" height="5" as="geometry"/></mxCell></object><object label="" type="drone" id="24"><mxCell style="rounded=0;whiteSpace=wrap;html=1;" parent="1" vertex="1"><mxGeometry x="215" y="208" width="5" height="5" as="geometry"/></mxCell></object><object label="" type="drone" id="25"><mxCell style="rounded=0;whiteSpace=wrap;html=1;" parent="1" vertex="1"><mxGeometry x="205" y="215" width="5" height="5" as="geometry"/></mxCell></object><object label="" type="drone" id="26"><mxCell style="rounded=0;whiteSpace=wrap;html=1;" parent="1" vertex="1"><mxGeometry x="185" y="215" width="5" height="5" as="geometry"/></mxCell></object><object label="" type="drone" id="27"><mxCell style="rounded=0;whiteSpace=wrap;html=1;" parent="1" vertex="1"><mxGeometry x="210" y="240" width="5" height="5" as="geometry"/></mxCell></object><object label="" type="drone" id="28"><mxCell style="rounded=0;whiteSpace=wrap;html=1;" parent="1" vertex="1"><mxGeometry x="200" y="225" width="5" height="5" as="geometry"/></mxCell></object><object label="" type="drone" id="29"><mxCell style="rounded=0;whiteSpace=wrap;html=1;" parent="1" vertex="1"><mxGeometry x="260" y="178" width="5" height="5" as="geometry"/></mxCell></object><object label="" type="drone" id="30"><mxCell style="rounded=0;whiteSpace=wrap;html=1;" parent="1" vertex="1"><mxGeometry x="270" y="178" width="5" height="5" as="geometry"/></mxCell></object><object label="" type="drone" id="31"><mxCell style="rounded=0;whiteSpace=wrap;html=1;" parent="1" vertex="1"><mxGeometry x="200" y="235" width="5" height="5" as="geometry"/></mxCell></object><object label="" type="drone" id="32"><mxCell style="rounded=0;whiteSpace=wrap;html=1;" parent="1" vertex="1"><mxGeometry x="190" y="225" width="5" height="5" as="geometry"/></mxCell></object><object label="" type="drone" id="33"><mxCell style="rounded=0;whiteSpace=wrap;html=1;" parent="1" vertex="1"><mxGeometry x="255" y="188" width="5" height="5" as="geometry"/></mxCell></object><object label="" type="drone" id="34"><mxCell style="rounded=0;whiteSpace=wrap;html=1;" parent="1" vertex="1"><mxGeometry x="275" y="188" width="5" height="5" as="geometry"/></mxCell></object><object label="" type="drone" id="35"><mxCell style="rounded=0;whiteSpace=wrap;html=1;" parent="1" vertex="1"><mxGeometry x="120" y="248" width="5" height="5" as="geometry"/></mxCell></object><object label="" type="drone" id="36"><mxCell style="rounded=0;whiteSpace=wrap;html=1;" parent="1" vertex="1"><mxGeometry x="140" y="228" width="5" height="5" as="geometry"/></mxCell></object><object label="" type="drone" id="37"><mxCell style="rounded=0;whiteSpace=wrap;html=1;" parent="1" vertex="1"><mxGeometry x="140" y="218" width="5" height="5" as="geometry"/></mxCell></object><object label="" type="drone" id="38"><mxCell style="rounded=0;whiteSpace=wrap;html=1;" parent="1" vertex="1"><mxGeometry x="175" y="220" width="5" height="5" as="geometry"/></mxCell></object><object label="" type="drone" id="39"><mxCell style="rounded=0;whiteSpace=wrap;html=1;" parent="1" vertex="1"><mxGeometry x="130" y="248" width="5" height="5" as="geometry"/></mxCell></object><object label="" type="drone" id="40"><mxCell style="rounded=0;whiteSpace=wrap;html=1;" parent="1" vertex="1"><mxGeometry x="140" y="238" width="5" height="5" as="geometry"/></mxCell></object><object label="" type="drone" id="41"><mxCell style="rounded=0;whiteSpace=wrap;html=1;" parent="1" vertex="1"><mxGeometry x="175" y="208" width="5" height="5" as="geometry"/></mxCell></object><object label="" type="drone" id="42"><mxCell style="rounded=0;whiteSpace=wrap;html=1;" parent="1" vertex="1"><mxGeometry x="175" y="230" width="5" height="5" as="geometry"/></mxCell></object><object label="" type="drone" id="43"><mxCell style="rounded=0;whiteSpace=wrap;html=1;" parent="1" vertex="1"><mxGeometry x="130" y="238" width="5" height="5" as="geometry"/></mxCell></object><object label="" type="drone" id="44"><mxCell style="rounded=0;whiteSpace=wrap;html=1;" parent="1" vertex="1"><mxGeometry x="186" y="250" width="5" height="5" as="geometry"/></mxCell></object><object label="" type="drone" id="45"><mxCell style="rounded=0;whiteSpace=wrap;html=1;" parent="1" vertex="1"><mxGeometry x="175" y="188" width="5" height="5" as="geometry"/></mxCell></object><object label="" type="drone" id="46"><mxCell style="rounded=0;whiteSpace=wrap;html=1;" parent="1" vertex="1"><mxGeometry x="175" y="240" width="5" height="5" as="geometry"/></mxCell></object><object label="" type="drone" id="47"><mxCell style="rounded=0;whiteSpace=wrap;html=1;" parent="1" vertex="1"><mxGeometry x="175" y="178" width="5" height="5" as="geometry"/></mxCell></object><object label="" type="drone" id="48"><mxCell style="rounded=0;whiteSpace=wrap;html=1;" parent="1" vertex="1"><mxGeometry x="210" y="250" width="5" height="5" as="geometry"/></mxCell></object><object label="" type="drone" id="49"><mxCell style="rounded=0;whiteSpace=wrap;html=1;" parent="1" vertex="1"><mxGeometry x="175" y="198" width="5" height="5" as="geometry"/></mxCell></object><object label="" type="drone" id="50"><mxCell style="rounded=0;whiteSpace=wrap;html=1;" parent="1" vertex="1"><mxGeometry x="175" y="250" width="5" height="5" as="geometry"/></mxCell></object><object label="" type="drone" id="51"><mxCell style="rounded=0;whiteSpace=wrap;html=1;" parent="1" vertex="1"><mxGeometry x="220" y="250" width="5" height="5" as="geometry"/></mxCell></object><object label="" type="drone" id="52"><mxCell style="rounded=0;whiteSpace=wrap;html=1;" parent="1" vertex="1"><mxGeometry x="260" y="250" width="5" height="5" as="geometry"/></mxCell></object><object label="" type="drone" id="53"><mxCell style="rounded=0;whiteSpace=wrap;html=1;" parent="1" vertex="1"><mxGeometry x="270" y="250" width="5" height="5" as="geometry"/></mxCell></object><object label="" type="drone" id="54"><mxCell style="rounded=0;whiteSpace=wrap;html=1;" parent="1" vertex="1"><mxGeometry x="285" y="188" width="5" height="5" as="geometry"/></mxCell></object><object label="" type="drone" id="55"><mxCell style="rounded=0;whiteSpace=wrap;html=1;" parent="1" vertex="1"><mxGeometry x="245" y="188" width="5" height="5" as="geometry"/></mxCell></object><object label="" type="drone" id="56"><mxCell style="rounded=0;whiteSpace=wrap;html=1;" parent="1" vertex="1"><mxGeometry x="240" y="220" width="5" height="5" as="geometry"/></mxCell></object><object label="" type="drone" id="57"><mxCell style="rounded=0;whiteSpace=wrap;html=1;" parent="1" vertex="1"><mxGeometry x="290" y="218" width="5" height="5" as="geometry"/></mxCell></object><object label="" type="drone" id="58"><mxCell style="rounded=0;whiteSpace=wrap;html=1;" parent="1" vertex="1"><mxGeometry x="290" y="198" width="5" height="5" as="geometry"/></mxCell></object><object label="" type="drone" id="59"><mxCell style="rounded=0;whiteSpace=wrap;html=1;" parent="1" vertex="1"><mxGeometry x="240" y="198" width="5" height="5" as="geometry"/></mxCell></object><object label="" type="drone" id="60"><mxCell style="rounded=0;whiteSpace=wrap;html=1;" parent="1" vertex="1"><mxGeometry x="245" y="240" width="5" height="5" as="geometry"/></mxCell></object><object label="" type="drone" id="61"><mxCell style="rounded=0;whiteSpace=wrap;html=1;" parent="1" vertex="1"><mxGeometry x="290" y="228" width="5" height="5" as="geometry"/></mxCell></object><object label="" type="drone" id="62"><mxCell style="rounded=0;whiteSpace=wrap;html=1;" parent="1" vertex="1"><mxGeometry x="290" y="208" width="5" height="5" as="geometry"/></mxCell></object><object label="" type="drone" id="63"><mxCell style="rounded=0;whiteSpace=wrap;html=1;" parent="1" vertex="1"><mxGeometry x="240" y="208" width="5" height="5" as="geometry"/></mxCell></object><object label="" type="drone" id="64"><mxCell style="rounded=0;whiteSpace=wrap;html=1;" parent="1" vertex="1"><mxGeometry x="275" y="240" width="5" height="5" as="geometry"/></mxCell></object><object label="" type="drone" id="65"><mxCell style="rounded=0;whiteSpace=wrap;html=1;" parent="1" vertex="1"><mxGeometry x="285" y="240" width="5" height="5" as="geometry"/></mxCell></object><object label="" type="drone" id="66"><mxCell style="rounded=0;whiteSpace=wrap;html=1;" parent="1" vertex="1"><mxGeometry x="255" y="240" width="5" height="5" as="geometry"/></mxCell></object><object label="" type="drone" id="67"><mxCell style="rounded=0;whiteSpace=wrap;html=1;" parent="1" vertex="1"><mxGeometry x="240" y="230" width="5" height="5" as="geometry"/></mxCell></object><object label="" type="drone" id="68"><mxCell style="rounded=0;whiteSpace=wrap;html=1;" parent="1" vertex="1"><mxGeometry x="500" y="180" width="5" height="5" as="geometry"/></mxCell></object><object label="" type="drone" id="69"><mxCell style="rounded=0;whiteSpace=wrap;html=1;" parent="1" vertex="1"><mxGeometry x="460" y="250" width="5" height="5" as="geometry"/></mxCell></object><object label="" type="drone" id="70"><mxCell style="rounded=0;whiteSpace=wrap;html=1;" parent="1" vertex="1"><mxGeometry x="500" y="250" width="5" height="5" as="geometry"/></mxCell></object><object label="" type="drone" id="71"><mxCell style="rounded=0;whiteSpace=wrap;html=1;" parent="1" vertex="1"><mxGeometry x="460" y="180" width="5" height="5" as="geometry"/></mxCell></object><object label="" type="drone" id="72"><mxCell style="rounded=0;whiteSpace=wrap;html=1;" parent="1" vertex="1"><mxGeometry x="460" y="190" width="5" height="5" as="geometry"/></mxCell></object><object label="" type="drone" id="73"><mxCell style="rounded=0;whiteSpace=wrap;html=1;" parent="1" vertex="1"><mxGeometry x="460" y="200" width="5" height="5" as="geometry"/></mxCell></object><object label="" type="drone" id="74"><mxCell style="rounded=0;whiteSpace=wrap;html=1;" parent="1" vertex="1"><mxGeometry x="460" y="210" width="5" height="5" as="geometry"/></mxCell></object><object label="" type="drone" id="75"><mxCell style="rounded=0;whiteSpace=wrap;html=1;" parent="1" vertex="1"><mxGeometry x="395" y="240" width="5" height="5" as="geometry"/></mxCell></object><object label="" type="drone" id="76"><mxCell style="rounded=0;whiteSpace=wrap;html=1;" parent="1" vertex="1"><mxGeometry x="405" y="240" width="5" height="5" as="geometry"/></mxCell></object><object label="" type="drone" id="77"><mxCell style="rounded=0;whiteSpace=wrap;html=1;" parent="1" vertex="1"><mxGeometry x="415" y="240" width="5" height="5" as="geometry"/></mxCell></object><object label="" type="drone" id="78"><mxCell style="rounded=0;whiteSpace=wrap;html=1;" parent="1" vertex="1"><mxGeometry x="425" y="240" width="5" height="5" as="geometry"/></mxCell></object><object label="" type="drone" id="79"><mxCell style="rounded=0;whiteSpace=wrap;html=1;" parent="1" vertex="1"><mxGeometry x="395" y="250" width="5" height="5" as="geometry"/></mxCell></object><object label="" type="drone" id="80"><mxCell style="rounded=0;whiteSpace=wrap;html=1;" parent="1" vertex="1"><mxGeometry x="405" y="250" width="5" height="5" as="geometry"/></mxCell></object><object label="" type="drone" id="81"><mxCell style="rounded=0;whiteSpace=wrap;html=1;" parent="1" vertex="1"><mxGeometry x="415" y="250" width="5" height="5" as="geometry"/></mxCell></object><object label="" type="drone" id="82"><mxCell style="rounded=0;whiteSpace=wrap;html=1;" parent="1" vertex="1"><mxGeometry x="425" y="250" width="5" height="5" as="geometry"/></mxCell></object><object label="" type="drone" id="83"><mxCell style="rounded=0;whiteSpace=wrap;html=1;" parent="1" vertex="1"><mxGeometry x="310" y="180" width="5" height="5" as="geometry"/></mxCell></object><object label="" type="drone" id="84"><mxCell style="rounded=0;whiteSpace=wrap;html=1;" parent="1" vertex="1"><mxGeometry x="320" y="190" width="5" height="5" as="geometry"/></mxCell></object><object label="" type="drone" id="85"><mxCell style="rounded=0;whiteSpace=wrap;html=1;" parent="1" vertex="1"><mxGeometry x="330" y="190" width="5" height="5" as="geometry"/></mxCell></object><object label="" type="drone" id="86"><mxCell style="rounded=0;whiteSpace=wrap;html=1;" parent="1" vertex="1"><mxGeometry x="370" y="200" width="5" height="5" as="geometry"/></mxCell></object><object label="" type="drone" id="87"><mxCell style="rounded=0;whiteSpace=wrap;html=1;" parent="1" vertex="1"><mxGeometry x="310" y="190" width="5" height="5" as="geometry"/></mxCell></object><object label="" type="drone" id="88"><mxCell style="rounded=0;whiteSpace=wrap;html=1;" parent="1" vertex="1"><mxGeometry x="330" y="200" width="5" height="5" as="geometry"/></mxCell></object><object label="" type="drone" id="89"><mxCell style="rounded=0;whiteSpace=wrap;html=1;" parent="1" vertex="1"><mxGeometry x="340" y="200" width="5" height="5" as="geometry"/></mxCell></object><object label="" type="drone" id="90"><mxCell style="rounded=0;whiteSpace=wrap;html=1;" parent="1" vertex="1"><mxGeometry x="370" y="210" width="5" height="5" as="geometry"/></mxCell></object><object label="" type="drone" id="91"><mxCell style="rounded=0;whiteSpace=wrap;html=1;" parent="1" vertex="1"><mxGeometry x="310" y="200" width="5" height="5" as="geometry"/></mxCell></object><object label="" type="drone" id="92"><mxCell style="rounded=0;whiteSpace=wrap;html=1;" parent="1" vertex="1"><mxGeometry x="340" y="210" width="5" height="5" as="geometry"/></mxCell></object><object label="" type="drone" id="93"><mxCell style="rounded=0;whiteSpace=wrap;html=1;" parent="1" vertex="1"><mxGeometry x="350" y="210" width="5" height="5" as="geometry"/></mxCell></object><object label="" type="drone" id="94"><mxCell style="rounded=0;whiteSpace=wrap;html=1;" parent="1" vertex="1"><mxGeometry x="370" y="220" width="5" height="5" as="geometry"/></mxCell></object><object label="" type="drone" id="95"><mxCell style="rounded=0;whiteSpace=wrap;html=1;" parent="1" vertex="1"><mxGeometry x="310" y="210" width="5" height="5" as="geometry"/></mxCell></object><object label="" type="drone" id="96"><mxCell style="rounded=0;whiteSpace=wrap;html=1;" parent="1" vertex="1"><mxGeometry x="340" y="220" width="5" height="5" as="geometry"/></mxCell></object><object label="" type="drone" id="97"><mxCell style="rounded=0;whiteSpace=wrap;html=1;" parent="1" vertex="1"><mxGeometry x="350" y="220" width="5" height="5" as="geometry"/></mxCell></object><object label="" type="drone" id="98"><mxCell style="rounded=0;whiteSpace=wrap;html=1;" parent="1" vertex="1"><mxGeometry x="370" y="230" width="5" height="5" as="geometry"/></mxCell></object><object label="" type="drone" id="99"><mxCell style="rounded=0;whiteSpace=wrap;html=1;" parent="1" vertex="1"><mxGeometry x="310" y="220" width="5" height="5" as="geometry"/></mxCell></object><object label="" type="drone" id="100"><mxCell style="rounded=0;whiteSpace=wrap;html=1;" parent="1" vertex="1"><mxGeometry x="435" y="240" width="5" height="5" as="geometry"/></mxCell></object><object label="" type="drone" id="101"><mxCell style="rounded=0;whiteSpace=wrap;html=1;" parent="1" vertex="1"><mxGeometry x="395" y="200" width="5" height="5" as="geometry"/></mxCell></object><object label="" type="drone" id="102"><mxCell style="rounded=0;whiteSpace=wrap;html=1;" parent="1" vertex="1"><mxGeometry x="405" y="200" width="5" height="5" as="geometry"/></mxCell></object><object label="" type="drone" id="103"><mxCell style="rounded=0;whiteSpace=wrap;html=1;" parent="1" vertex="1"><mxGeometry x="310" y="230" width="5" height="5" as="geometry"/></mxCell></object><object label="" type="drone" id="104"><mxCell style="rounded=0;whiteSpace=wrap;html=1;" parent="1" vertex="1"><mxGeometry x="435" y="250" width="5" height="5" as="geometry"/></mxCell></object><object label="" type="drone" id="105"><mxCell style="rounded=0;whiteSpace=wrap;html=1;" parent="1" vertex="1"><mxGeometry x="460" y="220" width="5" height="5" as="geometry"/></mxCell></object><object label="" type="drone" id="106"><mxCell style="rounded=0;whiteSpace=wrap;html=1;" parent="1" vertex="1"><mxGeometry x="460" y="230" width="5" height="5" as="geometry"/></mxCell></object><object label="" type="drone" id="107"><mxCell style="rounded=0;whiteSpace=wrap;html=1;" parent="1" vertex="1"><mxGeometry x="310" y="240" width="5" height="5" as="geometry"/></mxCell></object><object label="" type="drone" id="108"><mxCell style="rounded=0;whiteSpace=wrap;html=1;" parent="1" vertex="1"><mxGeometry x="385" y="180" width="5" height="5" as="geometry"/></mxCell></object><object label="" type="drone" id="109"><mxCell style="rounded=0;whiteSpace=wrap;html=1;" parent="1" vertex="1"><mxGeometry x="395" y="180" width="5" height="5" as="geometry"/></mxCell></object><object label="" type="drone" id="110"><mxCell style="rounded=0;whiteSpace=wrap;html=1;" parent="1" vertex="1"><mxGeometry x="405" y="180" width="5" height="5" as="geometry"/></mxCell></object><object label="" type="drone" id="111"><mxCell style="rounded=0;whiteSpace=wrap;html=1;" parent="1" vertex="1"><mxGeometry x="310" y="250" width="5" height="5" as="geometry"/></mxCell></object><object label="" type="drone" id="112"><mxCell style="rounded=0;whiteSpace=wrap;html=1;" parent="1" vertex="1"><mxGeometry x="415" y="180" width="5" height="5" as="geometry"/></mxCell></object><object label="" type="drone" id="113"><mxCell style="rounded=0;whiteSpace=wrap;html=1;" parent="1" vertex="1"><mxGeometry x="425" y="180" width="5" height="5" as="geometry"/></mxCell></object><object label="" type="drone" id="114"><mxCell style="rounded=0;whiteSpace=wrap;html=1;" parent="1" vertex="1"><mxGeometry x="435" y="180" width="5" height="5" as="geometry"/></mxCell></object><object label="" type="drone" id="115"><mxCell style="rounded=0;whiteSpace=wrap;html=1;" parent="1" vertex="1"><mxGeometry x="350" y="230" width="5" height="5" as="geometry"/></mxCell></object><object label="" type="drone" id="116"><mxCell style="rounded=0;whiteSpace=wrap;html=1;" parent="1" vertex="1"><mxGeometry x="360" y="230" width="5" height="5" as="geometry"/></mxCell></object><object label="" type="drone" id="117"><mxCell style="rounded=0;whiteSpace=wrap;html=1;" parent="1" vertex="1"><mxGeometry x="370" y="180" width="5" height="5" as="geometry"/></mxCell></object><object label="" type="drone" id="118"><mxCell style="rounded=0;whiteSpace=wrap;html=1;" parent="1" vertex="1"><mxGeometry x="385" y="190" width="5" height="5" as="geometry"/></mxCell></object><object label="" type="drone" id="119"><mxCell style="rounded=0;whiteSpace=wrap;html=1;" parent="1" vertex="1"><mxGeometry x="360" y="240" width="5" height="5" as="geometry"/></mxCell></object><object label="" type="drone" id="120"><mxCell style="rounded=0;whiteSpace=wrap;html=1;" parent="1" vertex="1"><mxGeometry x="370" y="240" width="5" height="5" as="geometry"/></mxCell></object><object label="" type="drone" id="121"><mxCell style="rounded=0;whiteSpace=wrap;html=1;" parent="1" vertex="1"><mxGeometry x="385" y="230" width="5" height="5" as="geometry"/></mxCell></object><object label="" type="drone" id="122"><mxCell style="rounded=0;whiteSpace=wrap;html=1;" parent="1" vertex="1"><mxGeometry x="385" y="200" width="5" height="5" as="geometry"/></mxCell></object><object label="" type="drone" id="123"><mxCell style="rounded=0;whiteSpace=wrap;html=1;" parent="1" vertex="1"><mxGeometry x="370" y="250" width="5" height="5" as="geometry"/></mxCell></object><object label="" type="drone" id="124"><mxCell style="rounded=0;whiteSpace=wrap;html=1;" parent="1" vertex="1"><mxGeometry x="370" y="190" width="5" height="5" as="geometry"/></mxCell></object><object label="" type="drone" id="125"><mxCell style="rounded=0;whiteSpace=wrap;html=1;" parent="1" vertex="1"><mxGeometry x="385" y="240" width="5" height="5" as="geometry"/></mxCell></object><object label="" type="drone" id="126"><mxCell style="rounded=0;whiteSpace=wrap;html=1;" parent="1" vertex="1"><mxGeometry x="385" y="210" width="5" height="5" as="geometry"/></mxCell></object><object label="" type="drone" id="127"><mxCell style="rounded=0;whiteSpace=wrap;html=1;" parent="1" vertex="1"><mxGeometry x="395" y="210" width="5" height="5" as="geometry"/></mxCell></object><object label="" type="drone" id="128"><mxCell style="rounded=0;whiteSpace=wrap;html=1;" parent="1" vertex="1"><mxGeometry x="405" y="210" width="5" height="5" as="geometry"/></mxCell></object><object label="" type="drone" id="129"><mxCell style="rounded=0;whiteSpace=wrap;html=1;" parent="1" vertex="1"><mxGeometry x="385" y="250" width="5" height="5" as="geometry"/></mxCell></object><object label="" type="drone" id="130"><mxCell style="rounded=0;whiteSpace=wrap;html=1;" parent="1" vertex="1"><mxGeometry x="385" y="220" width="5" height="5" as="geometry"/></mxCell></object></root></mxGraphModel></diagram></mxfile>